<svg width="131" height="20" viewBox="0 0 131 20" fill="none" xmlns="http://www.w3.org/2000/svg">
<path d="M40.8945 3.60156C41.9102 3.60156 42.7956 3.76432 43.5508 4.08984C44.306 4.40234 44.8919 4.83854 45.3086 5.39844C45.7383 5.95833 45.9531 6.60286 45.9531 7.33203C45.9531 7.98307 45.7773 8.5625 45.4258 9.07031C45.0872 9.57812 44.6576 9.96875 44.1367 10.2422C44.5273 10.3464 44.9049 10.5221 45.2695 10.7695C45.6341 11.0039 45.9336 11.3229 46.168 11.7266C46.4023 12.1172 46.5195 12.6185 46.5195 13.2305C46.5195 13.9596 46.2982 14.6302 45.8555 15.2422C45.4128 15.8411 44.7943 16.3229 44 16.6875C43.2057 17.0521 42.2812 17.2344 41.2266 17.2344C40.6536 17.2344 40.0352 17.2083 39.3711 17.1562C38.707 17.1172 38.0755 17.0586 37.4766 16.9805C36.8776 16.8893 36.3698 16.7982 35.9531 16.707V4.08984C36.6823 3.93359 37.4701 3.81641 38.3164 3.73828C39.1628 3.64714 40.0221 3.60156 40.8945 3.60156ZM40.8945 6.08203C40.0612 6.08203 39.319 6.14714 38.668 6.27734V9.44141H41.1094C41.7734 9.44141 42.2943 9.27865 42.6719 8.95312C43.0625 8.6276 43.2578 8.21094 43.2578 7.70312C43.2578 7.18229 43.0234 6.78516 42.5547 6.51172C42.099 6.22526 41.5456 6.08203 40.8945 6.08203ZM38.668 14.5586C39.0326 14.6497 39.4492 14.7148 39.918 14.7539C40.3997 14.7799 40.7839 14.793 41.0703 14.793C41.8255 14.793 42.444 14.6432 42.9258 14.3438C43.4206 14.0443 43.668 13.6211 43.668 13.0742C43.668 12.5273 43.4141 12.1237 42.9062 11.8633C42.3984 11.5898 41.7865 11.4531 41.0703 11.4531H38.668V14.5586ZM53.4141 6.88281C54.3776 6.88281 55.2044 7.09115 55.8945 7.50781C56.5977 7.92448 57.1315 8.50391 57.4961 9.24609C57.8737 9.97526 58.0625 10.8216 58.0625 11.7852V12.8398H50.9141C51.0443 13.5039 51.3698 14.0378 51.8906 14.4414C52.4115 14.8451 53.0495 15.0469 53.8047 15.0469C54.5208 15.0469 55.1719 14.9036 55.7578 14.6172C56.3438 14.3307 56.8125 14.0378 57.1641 13.7383L57.1445 16.043C56.832 16.3164 56.3633 16.5964 55.7383 16.8828C55.1263 17.1562 54.4492 17.293 53.707 17.293C52.7305 17.293 51.8385 17.0716 51.0312 16.6289C50.237 16.1862 49.599 15.5807 49.1172 14.8125C48.6484 14.0443 48.4141 13.1654 48.4141 12.1758C48.4141 11.2122 48.6289 10.3333 49.0586 9.53906C49.4883 8.74479 50.0807 8.10677 50.8359 7.625C51.5911 7.13021 52.4505 6.88281 53.4141 6.88281ZM53.3555 9.05078C52.7435 9.05078 52.2292 9.23958 51.8125 9.61719C51.3958 9.99479 51.1094 10.5026 50.9531 11.1406H55.6797C55.6276 10.4375 55.3672 9.91667 54.8984 9.57812C54.4297 9.22656 53.9154 9.05078 53.3555 9.05078ZM81.6367 3.91406V6.35547H77.457V16.9414H74.7617V6.35547H70.582V3.91406H81.6367ZM89.8984 9.91016C89.4818 9.67578 89.0456 9.55859 88.5898 9.55859C88.0169 9.55859 87.5417 9.7474 87.1641 10.125C86.7865 10.4896 86.4544 10.9453 86.168 11.4922V17H83.6875V7.13672H86.168V8.99219C86.5065 8.40625 86.9036 7.91797 87.3594 7.52734C87.8281 7.13672 88.3555 6.94141 88.9414 6.94141C89.293 6.94141 89.612 7 89.8984 7.11719V9.91016ZM95.7188 6.88281C96.2526 6.88281 96.793 7.00651 97.3398 7.25391C97.8867 7.5013 98.3424 7.83333 98.707 8.25V7.13672H101.188V17H98.707V15.3398C98.4206 15.8737 98.0039 16.3359 97.457 16.7266C96.9102 17.1042 96.2721 17.293 95.543 17.293C94.7487 17.293 94.013 17.0911 93.3359 16.6875C92.6719 16.2839 92.138 15.6979 91.7344 14.9297C91.3307 14.1615 91.1289 13.2305 91.1289 12.1367C91.1289 11.043 91.3307 10.1055 91.7344 9.32422C92.151 8.54297 92.7044 7.94401 93.3945 7.52734C94.0977 7.09766 94.8724 6.88281 95.7188 6.88281ZM96.2266 9.30469C95.7057 9.30469 95.2565 9.44141 94.8789 9.71484C94.5143 9.97526 94.2279 10.3203 94.0195 10.75C93.8112 11.1797 93.707 11.6419 93.707 12.1367C93.707 12.8789 93.9284 13.5104 94.3711 14.0312C94.8268 14.5521 95.4258 14.8125 96.168 14.8125C96.6107 14.8125 97.0208 14.6953 97.3984 14.4609C97.7891 14.2266 98.1016 13.901 98.3359 13.4844C98.5833 13.0547 98.707 12.5404 98.707 11.9414V10.5352C98.3555 10.1576 97.9714 9.85807 97.5547 9.63672C97.151 9.41536 96.7083 9.30469 96.2266 9.30469ZM113.668 7.13672L109 17H107.418L102.809 7.13672H105.699L108.18 13.25L110.777 7.13672H113.668ZM119.215 6.88281C120.178 6.88281 121.005 7.09115 121.695 7.50781C122.398 7.92448 122.932 8.50391 123.297 9.24609C123.674 9.97526 123.863 10.8216 123.863 11.7852V12.8398H116.715C116.845 13.5039 117.171 14.0378 117.691 14.4414C118.212 14.8451 118.85 15.0469 119.605 15.0469C120.322 15.0469 120.973 14.9036 121.559 14.6172C122.145 14.3307 122.613 14.0378 122.965 13.7383L122.945 16.043C122.633 16.3164 122.164 16.5964 121.539 16.8828C120.927 17.1562 120.25 17.293 119.508 17.293C118.531 17.293 117.639 17.0716 116.832 16.6289C116.038 16.1862 115.4 15.5807 114.918 14.8125C114.449 14.0443 114.215 13.1654 114.215 12.1758C114.215 11.2122 114.43 10.3333 114.859 9.53906C115.289 8.74479 115.882 8.10677 116.637 7.625C117.392 7.13021 118.251 6.88281 119.215 6.88281ZM119.156 9.05078C118.544 9.05078 118.03 9.23958 117.613 9.61719C117.197 9.99479 116.91 10.5026 116.754 11.1406H121.48C121.428 10.4375 121.168 9.91667 120.699 9.57812C120.23 9.22656 119.716 9.05078 119.156 9.05078ZM128.609 2.9375V17H126.129V2.9375H128.609Z" fill="#2D3134"/>
<path d="M64.6445 6.88281C65.6081 6.88281 66.4349 7.09115 67.125 7.50781C67.8281 7.92448 68.362 8.50391 68.7266 9.24609C69.1042 9.97526 69.293 10.8216 69.293 11.7852V12.8398H62.1445C62.2747 13.5039 62.6003 14.0378 63.1211 14.4414C63.6419 14.8451 64.2799 15.0469 65.0352 15.0469C65.7513 15.0469 66.4023 14.9036 66.9883 14.6172C67.5742 14.3307 68.043 14.0378 68.3945 13.7383L68.375 16.043C68.0625 16.3164 67.5938 16.5964 66.9688 16.8828C66.3568 17.1562 65.6797 17.293 64.9375 17.293C63.9609 17.293 63.069 17.0716 62.2617 16.6289C61.4674 16.1862 60.8294 15.5807 60.3477 14.8125C59.8789 14.0443 59.6445 13.1654 59.6445 12.1758C59.6445 11.2122 59.8594 10.3333 60.2891 9.53906C60.7188 8.74479 61.3112 8.10677 62.0664 7.625C62.8216 7.13021 63.681 6.88281 64.6445 6.88281ZM64.5859 9.05078C63.974 9.05078 63.4596 9.23958 63.043 9.61719C62.6263 9.99479 62.3398 10.5026 62.1836 11.1406H66.9102C66.8581 10.4375 66.5977 9.91667 66.1289 9.57812C65.6602 9.22656 65.1458 9.05078 64.5859 9.05078Z" fill="#F66F4D"/>
<path d="M16.8033 2C12.1639 2 8.39345 5.75277 8.39345 10.4069L16.8033 10.4069L16.8033 2Z" fill="#2196F3"/>
<path d="M8.40979 2C3.77044 2 -4.88014e-05 5.75277 -4.90049e-05 10.4069L8.40979 10.4069L8.40979 2Z" fill="#FFC107"/>
<path d="M16.8033 10.4233C16.8033 15.061 13.0492 18.8301 8.39345 18.8301L8.39345 10.4233L16.8033 10.4233Z" fill="#FFC107"/>
<path d="M8.40979 18.8301C3.77044 18.8301 -4.88408e-05 15.0774 -4.86374e-05 10.4233L8.40979 10.4233L8.40979 18.8301Z" fill="#F44336"/>
<path d="M16.5902 18.8301C21.2295 18.8301 25 15.0774 25 10.4233L16.5902 10.4233L16.5902 18.8301Z" fill="#FFC107"/>
<path d="M16.5902 2C21.2295 2 25 5.75277 25 10.4069L16.5902 10.4069L16.5902 2Z" fill="#F44336"/>
</svg>
